<?xml version="1.0" encoding="UTF-8" standalone="no"?>
<svg
   xmlns:dc="http://purl.org/dc/elements/1.1/"
   xmlns:cc="http://creativecommons.org/ns#"
   xmlns:rdf="http://www.w3.org/1999/02/22-rdf-syntax-ns#"
   xmlns:svg="http://www.w3.org/2000/svg"
   xmlns="http://www.w3.org/2000/svg"
   xmlns:sodipodi="http://sodipodi.sourceforge.net/DTD/sodipodi-0.dtd"
   xmlns:inkscape="http://www.inkscape.org/namespaces/inkscape"
   width="33.416027mm"
   height="60.764019mm"
   viewBox="0 0 33.416027 60.764019"
   version="1.1"
   id="svg1257"
   inkscape:export-filename="C:\Users\tomec\OneDrive\Desktop\CREA\ptite\ptiteLogo.png"
   inkscape:export-xdpi="96"
   inkscape:export-ydpi="96"
   inkscape:version="1.0.1 (3bc2e813f5, 2020-09-07)"
   sodipodi:docname="logo.svg">
  <defs
     id="defs1251" />
  <sodipodi:namedview
     id="base"
     pagecolor="#ffffff"
     bordercolor="#666666"
     borderopacity="1.0"
     inkscape:pageopacity="0.0"
     inkscape:pageshadow="2"
     inkscape:zoom="0.98994949"
     inkscape:cx="-249.88385"
     inkscape:cy="-27.8508"
     inkscape:document-units="mm"
     inkscape:current-layer="layer1"
     inkscape:document-rotation="0"
     showgrid="false"
     inkscape:window-width="3000"
     inkscape:window-height="1890"
     inkscape:window-x="-12"
     inkscape:window-y="-12"
     inkscape:window-maximized="1" />
  <metadata
     id="metadata1254">
    <rdf:RDF>
      <cc:Work
         rdf:about="">
        <dc:format>image/svg+xml</dc:format>
        <dc:type
           rdf:resource="http://purl.org/dc/dcmitype/StillImage" />
        <dc:title></dc:title>
      </cc:Work>
    </rdf:RDF>
  </metadata>
  <g
     inkscape:label="Calque 1"
     inkscape:groupmode="layer"
     id="layer1"
     transform="translate(-101.22055,-123.83228)">
    <g
       id="g1220"
       transform="matrix(3.124617,0,0,3.124617,-124.38663,-193.95952)"
       style="fill:#28527a;fill-opacity:1"
       inkscape:export-xdpi="96"
       inkscape:export-ydpi="96">
      <path
         id="path1142"
         style="fill:#28527a;fill-opacity:1;stroke:none;stroke-width:7.61949"
         d="m 77.489647,101.70593 a 5.4019065,5.4019065 0 0 0 -5.286498,4.32144 h 5.277886 0.01464 a 1.0803814,1.0803814 0 0 1 0.0043,0 1.0803814,1.0803814 0 0 1 1.076162,1.08047 1.0803814,1.0803814 0 0 1 -1.076162,1.08047 1.0803814,1.0803814 0 0 1 -0.0043,0 h -5.292529 a 5.4019065,5.4019065 0 0 0 5.292529,4.32144 5.4019065,5.4019065 0 0 0 5.40191,-5.40191 5.4019065,5.4019065 0 0 0 -5.40191,-5.40191 5.4019065,5.4019065 0 0 0 -0.006,0 z" />
      <path
         id="rect1134"
         style="fill:#28527a;fill-opacity:1;stroke:none;stroke-width:8.68758"
         d="m 72.203148,101.70584 h 5.617975 v 4.32153 h -5.617975 z" />
      <path
         id="rect1136"
         style="fill:#28527a;fill-opacity:1;stroke:none;stroke-width:8.68758"
         d="m 72.203148,108.18813 h 5.617975 v 4.32153 h -5.617975 z" />
      <path
         id="rect1200"
         style="fill:#28527a;fill-opacity:1;stroke:none;stroke-width:6.72135"
         transform="rotate(90)"
         d="m 111.30767,-76.524673 h 3.36275 v 4.321525 h -3.36275 z" />
      <path
         id="rect1211"
         style="fill:#28527a;fill-opacity:1;stroke:none;stroke-width:7.61953"
         transform="rotate(90)"
         d="m 116.83118,-76.524673 h 4.32153 v 4.321525 h -4.32153 z" />
    </g>
  </g>
</svg>
